<?xml version="1.0" encoding="UTF-8" standalone="no"?>
<!DOCTYPE svg PUBLIC "-//W3C//DTD SVG 1.1//EN"
 "http://www.w3.org/Graphics/SVG/1.1/DTD/svg11.dtd">
<!-- Generated by graphviz version 2.38.0 (20140413.2041)
 -->
<!-- Title: controllers_diagram Pages: 1 -->
<svg width="397pt" height="402pt"
 viewBox="0.00 0.00 396.50 401.50" xmlns="http://www.w3.org/2000/svg" xmlns:xlink="http://www.w3.org/1999/xlink">
<g id="graph0" class="graph" transform="scale(1 1) rotate(0) translate(169 232.5)">
<title>controllers_diagram</title>
<polygon fill="none" stroke="none" points="-169,169 -169,-232.5 227.5,-232.5 227.5,169 -169,169"/>
<!-- _diagram_info -->
<g id="node1" class="node"><title>_diagram_info</title>
<text text-anchor="start" x="-112" y="-18.6" font-family="Times,serif" font-size="13.00">Controllers diagram</text>
<text text-anchor="start" x="-112" y="-4.6" font-family="Times,serif" font-size="13.00">Date: Mar 15 2016 &#45; 10:03</text>
<text text-anchor="start" x="-112" y="9.4" font-family="Times,serif" font-size="13.00">Migration version: 20160314141604</text>
<text text-anchor="start" x="-112" y="23.4" font-family="Times,serif" font-size="13.00">Generated by RailRoady 1.4.2</text>
<text text-anchor="start" x="-112" y="37.4" font-family="Times,serif" font-size="13.00">http://railroady.prestonlee.com</text>
</g>
<!-- ApplicationController -->
<g id="node2" class="node"><title>ApplicationController</title>
<path fill="none" stroke="black" d="M-93,-106C-93,-106 19,-106 19,-106 25,-106 31,-112 31,-118 31,-118 31,-188 31,-188 31,-194 25,-200 19,-200 19,-200 -93,-200 -93,-200 -99,-200 -105,-194 -105,-188 -105,-188 -105,-118 -105,-118 -105,-112 -99,-106 -93,-106"/>
<text text-anchor="middle" x="-37" y="-184.8" font-family="Times,serif" font-size="14.00">ApplicationController</text>
<polyline fill="none" stroke="black" points="-105,-177 31,-177 "/>
<polyline fill="none" stroke="black" points="-105,-153 31,-153 "/>
<polyline fill="none" stroke="black" points="-105,-129 31,-129 "/>
<text text-anchor="start" x="-97" y="-113.8" font-family="Times,serif" font-size="14.00">_layout</text>
</g>
<!-- VehiclesController -->
<g id="node3" class="node"><title>VehiclesController</title>
<path fill="none" stroke="black" d="M72.5,-60C72.5,-60 167.5,-60 167.5,-60 173.5,-60 179.5,-66 179.5,-72 179.5,-72 179.5,-216 179.5,-216 179.5,-222 173.5,-228 167.5,-228 167.5,-228 72.5,-228 72.5,-228 66.5,-228 60.5,-222 60.5,-216 60.5,-216 60.5,-72 60.5,-72 60.5,-66 66.5,-60 72.5,-60"/>
<text text-anchor="middle" x="120" y="-212.8" font-family="Times,serif" font-size="14.00">VehiclesController</text>
<polyline fill="none" stroke="black" points="60.5,-205 179.5,-205 "/>
<text text-anchor="start" x="68.5" y="-189.8" font-family="Times,serif" font-size="14.00">create</text>
<text text-anchor="start" x="68.5" y="-174.8" font-family="Times,serif" font-size="14.00">destroy</text>
<text text-anchor="start" x="68.5" y="-159.8" font-family="Times,serif" font-size="14.00">edit</text>
<text text-anchor="start" x="68.5" y="-144.8" font-family="Times,serif" font-size="14.00">update</text>
<polyline fill="none" stroke="black" points="60.5,-137 179.5,-137 "/>
<polyline fill="none" stroke="black" points="60.5,-113 179.5,-113 "/>
<text text-anchor="start" x="68.5" y="-97.8" font-family="Times,serif" font-size="14.00">_layout</text>
<text text-anchor="start" x="68.5" y="-82.8" font-family="Times,serif" font-size="14.00">correct_user</text>
<text text-anchor="start" x="68.5" y="-67.8" font-family="Times,serif" font-size="14.00">vehicle_params</text>
</g>
<!-- UsersController -->
<g id="node4" class="node"><title>UsersController</title>
<path fill="none" stroke="black" d="M132.5,119C132.5,119 211.5,119 211.5,119 217.5,119 223.5,113 223.5,107 223.5,107 223.5,-7 223.5,-7 223.5,-13 217.5,-19 211.5,-19 211.5,-19 132.5,-19 132.5,-19 126.5,-19 120.5,-13 120.5,-7 120.5,-7 120.5,107 120.5,107 120.5,113 126.5,119 132.5,119"/>
<text text-anchor="middle" x="172" y="-3.8" font-family="Times,serif" font-size="14.00">UsersController</text>
<polyline fill="none" stroke="black" points="120.5,4 223.5,4 "/>
<text text-anchor="start" x="128.5" y="19.2" font-family="Times,serif" font-size="14.00">index</text>
<text text-anchor="start" x="128.5" y="34.2" font-family="Times,serif" font-size="14.00">send_email</text>
<text text-anchor="start" x="128.5" y="49.2" font-family="Times,serif" font-size="14.00">show</text>
<polyline fill="none" stroke="black" points="120.5,57 223.5,57 "/>
<polyline fill="none" stroke="black" points="120.5,81 223.5,81 "/>
<text text-anchor="start" x="128.5" y="96.2" font-family="Times,serif" font-size="14.00">_layout</text>
<text text-anchor="start" x="128.5" y="111.2" font-family="Times,serif" font-size="14.00">correct_user</text>
</g>
<!-- StaticPagesController -->
<g id="node5" class="node"><title>StaticPagesController</title>
<path fill="none" stroke="black" d="M-153,164.5C-153,164.5 -43,164.5 -43,164.5 -37,164.5 -31,158.5 -31,152.5 -31,152.5 -31,83.5 -31,83.5 -31,77.5 -37,71.5 -43,71.5 -43,71.5 -153,71.5 -153,71.5 -159,71.5 -165,77.5 -165,83.5 -165,83.5 -165,152.5 -165,152.5 -165,158.5 -159,164.5 -153,164.5"/>
<text text-anchor="middle" x="-98" y="86.7" font-family="Times,serif" font-size="14.00">StaticPagesController</text>
<polyline fill="none" stroke="black" points="-165,94.5 -31,94.5 "/>
<text text-anchor="start" x="-157" y="109.7" font-family="Times,serif" font-size="14.00">home</text>
<polyline fill="none" stroke="black" points="-165,117.5 -31,117.5 "/>
<polyline fill="none" stroke="black" points="-165,141.5 -31,141.5 "/>
<text text-anchor="start" x="-157" y="156.7" font-family="Times,serif" font-size="14.00">_layout</text>
</g>
</g>
</svg>
