<?xml version="1.0" encoding="UTF-8" standalone="no"?>
<!DOCTYPE svg PUBLIC "-//W3C//DTD SVG 1.1//EN"
 "http://www.w3.org/Graphics/SVG/1.1/DTD/svg11.dtd">
<!-- Generated by graphviz version 2.38.0 (20140413.2041)
 -->
<!-- Title: controllers_diagram Pages: 1 -->
<svg width="474pt" height="477pt"
 viewBox="0.00 0.00 473.50 476.50" xmlns="http://www.w3.org/2000/svg" xmlns:xlink="http://www.w3.org/1999/xlink">
<g id="graph0" class="graph" transform="scale(1 1) rotate(0) translate(213.5 263)">
<title>controllers_diagram</title>
<polygon fill="none" stroke="none" points="-213.5,213.5 -213.5,-263 260,-263 260,213.5 -213.5,213.5"/>
<!-- _diagram_info -->
<g id="node1" class="node"><title>_diagram_info</title>
<text text-anchor="start" x="-112" y="-18.6" font-family="Times,serif" font-size="13.00">Controllers diagram</text>
<text text-anchor="start" x="-112" y="-4.6" font-family="Times,serif" font-size="13.00">Date: Mar 15 2016 &#45; 18:46</text>
<text text-anchor="start" x="-112" y="9.4" font-family="Times,serif" font-size="13.00">Migration version: 20160314141604</text>
<text text-anchor="start" x="-112" y="23.4" font-family="Times,serif" font-size="13.00">Generated by RailRoady 1.4.2</text>
<text text-anchor="start" x="-112" y="37.4" font-family="Times,serif" font-size="13.00">http://railroady.prestonlee.com</text>
</g>
<!-- ApplicationController -->
<g id="node2" class="node"><title>ApplicationController</title>
<path fill="none" stroke="black" d="M132,119C132,119 244,119 244,119 250,119 256,113 256,107 256,107 256,37 256,37 256,31 250,25 244,25 244,25 132,25 132,25 126,25 120,31 120,37 120,37 120,107 120,107 120,113 126,119 132,119"/>
<text text-anchor="middle" x="188" y="40.2" font-family="Times,serif" font-size="14.00">ApplicationController</text>
<polyline fill="none" stroke="black" points="120,48 256,48 "/>
<polyline fill="none" stroke="black" points="120,72 256,72 "/>
<polyline fill="none" stroke="black" points="120,96 256,96 "/>
<text text-anchor="start" x="128" y="111.2" font-family="Times,serif" font-size="14.00">_layout</text>
</g>
<!-- VehiclesController -->
<g id="node3" class="node"><title>VehiclesController</title>
<path fill="none" stroke="black" d="M72.5,-60C72.5,-60 167.5,-60 167.5,-60 173.5,-60 179.5,-66 179.5,-72 179.5,-72 179.5,-216 179.5,-216 179.5,-222 173.5,-228 167.5,-228 167.5,-228 72.5,-228 72.5,-228 66.5,-228 60.5,-222 60.5,-216 60.5,-216 60.5,-72 60.5,-72 60.5,-66 66.5,-60 72.5,-60"/>
<text text-anchor="middle" x="120" y="-212.8" font-family="Times,serif" font-size="14.00">VehiclesController</text>
<polyline fill="none" stroke="black" points="60.5,-205 179.5,-205 "/>
<text text-anchor="start" x="68.5" y="-189.8" font-family="Times,serif" font-size="14.00">create</text>
<text text-anchor="start" x="68.5" y="-174.8" font-family="Times,serif" font-size="14.00">destroy</text>
<text text-anchor="start" x="68.5" y="-159.8" font-family="Times,serif" font-size="14.00">edit</text>
<text text-anchor="start" x="68.5" y="-144.8" font-family="Times,serif" font-size="14.00">update</text>
<polyline fill="none" stroke="black" points="60.5,-137 179.5,-137 "/>
<polyline fill="none" stroke="black" points="60.5,-113 179.5,-113 "/>
<text text-anchor="start" x="68.5" y="-97.8" font-family="Times,serif" font-size="14.00">_layout</text>
<text text-anchor="start" x="68.5" y="-82.8" font-family="Times,serif" font-size="14.00">correct_user</text>
<text text-anchor="start" x="68.5" y="-67.8" font-family="Times,serif" font-size="14.00">vehicle_params</text>
</g>
<!-- UsersController -->
<g id="node4" class="node"><title>UsersController</title>
<path fill="none" stroke="black" d="M-197.5,209C-197.5,209 -118.5,209 -118.5,209 -112.5,209 -106.5,203 -106.5,197 -106.5,197 -106.5,83 -106.5,83 -106.5,77 -112.5,71 -118.5,71 -118.5,71 -197.5,71 -197.5,71 -203.5,71 -209.5,77 -209.5,83 -209.5,83 -209.5,197 -209.5,197 -209.5,203 -203.5,209 -197.5,209"/>
<text text-anchor="middle" x="-158" y="86.2" font-family="Times,serif" font-size="14.00">UsersController</text>
<polyline fill="none" stroke="black" points="-209.5,94 -106.5,94 "/>
<text text-anchor="start" x="-201.5" y="109.2" font-family="Times,serif" font-size="14.00">index</text>
<text text-anchor="start" x="-201.5" y="124.2" font-family="Times,serif" font-size="14.00">send_email</text>
<text text-anchor="start" x="-201.5" y="139.2" font-family="Times,serif" font-size="14.00">show</text>
<polyline fill="none" stroke="black" points="-209.5,147 -106.5,147 "/>
<polyline fill="none" stroke="black" points="-209.5,171 -106.5,171 "/>
<text text-anchor="start" x="-201.5" y="186.2" font-family="Times,serif" font-size="14.00">_layout</text>
<text text-anchor="start" x="-201.5" y="201.2" font-family="Times,serif" font-size="14.00">correct_user</text>
</g>
<!-- InsurancesController -->
<g id="node5" class="node"><title>InsurancesController</title>
<path fill="none" stroke="black" d="M-93,-105.5C-93,-105.5 13,-105.5 13,-105.5 19,-105.5 25,-111.5 25,-117.5 25,-117.5 25,-246.5 25,-246.5 25,-252.5 19,-258.5 13,-258.5 13,-258.5 -93,-258.5 -93,-258.5 -99,-258.5 -105,-252.5 -105,-246.5 -105,-246.5 -105,-117.5 -105,-117.5 -105,-111.5 -99,-105.5 -93,-105.5"/>
<text text-anchor="middle" x="-40" y="-243.3" font-family="Times,serif" font-size="14.00">InsurancesController</text>
<polyline fill="none" stroke="black" points="-105,-235.5 25,-235.5 "/>
<text text-anchor="start" x="-97" y="-220.3" font-family="Times,serif" font-size="14.00">create</text>
<text text-anchor="start" x="-97" y="-205.3" font-family="Times,serif" font-size="14.00">destroy</text>
<text text-anchor="start" x="-97" y="-190.3" font-family="Times,serif" font-size="14.00">edit</text>
<text text-anchor="start" x="-97" y="-175.3" font-family="Times,serif" font-size="14.00">update</text>
<polyline fill="none" stroke="black" points="-105,-167.5 25,-167.5 "/>
<polyline fill="none" stroke="black" points="-105,-143.5 25,-143.5 "/>
<text text-anchor="start" x="-97" y="-128.3" font-family="Times,serif" font-size="14.00">_layout</text>
<text text-anchor="start" x="-97" y="-113.3" font-family="Times,serif" font-size="14.00">insurance_params</text>
</g>
<!-- StaticPagesController -->
<g id="node6" class="node"><title>StaticPagesController</title>
<path fill="none" stroke="black" d="M-63,164.5C-63,164.5 47,164.5 47,164.5 53,164.5 59,158.5 59,152.5 59,152.5 59,83.5 59,83.5 59,77.5 53,71.5 47,71.5 47,71.5 -63,71.5 -63,71.5 -69,71.5 -75,77.5 -75,83.5 -75,83.5 -75,152.5 -75,152.5 -75,158.5 -69,164.5 -63,164.5"/>
<text text-anchor="middle" x="-8" y="86.7" font-family="Times,serif" font-size="14.00">StaticPagesController</text>
<polyline fill="none" stroke="black" points="-75,94.5 59,94.5 "/>
<text text-anchor="start" x="-67" y="109.7" font-family="Times,serif" font-size="14.00">home</text>
<polyline fill="none" stroke="black" points="-75,117.5 59,117.5 "/>
<polyline fill="none" stroke="black" points="-75,141.5 59,141.5 "/>
<text text-anchor="start" x="-67" y="156.7" font-family="Times,serif" font-size="14.00">_layout</text>
</g>
</g>
</svg>
