<?xml version="1.0" encoding="UTF-8" standalone="no"?>
<!DOCTYPE svg PUBLIC "-//W3C//DTD SVG 1.1//EN"
 "http://www.w3.org/Graphics/SVG/1.1/DTD/svg11.dtd">
<!-- Generated by graphviz version 2.38.0 (20140413.2041)
 -->
<!-- Title: models_diagram Pages: 1 -->
<svg width="440pt" height="611pt"
 viewBox="0.00 0.00 440.00 611.00" xmlns="http://www.w3.org/2000/svg" xmlns:xlink="http://www.w3.org/1999/xlink">
<g id="graph0" class="graph" transform="scale(1 1) rotate(0) translate(4 607)">
<title>models_diagram</title>
<polygon fill="none" stroke="none" points="-4,4 -4,-607 436,-607 436,4 -4,4"/>
<!-- _diagram_info -->
<g id="node1" class="node"><title>_diagram_info</title>
<text text-anchor="start" x="8" y="-484.1" font-family="Times,serif" font-size="13.00">Models diagram</text>
<text text-anchor="start" x="8" y="-470.1" font-family="Times,serif" font-size="13.00">Date: Mar 14 2016 &#45; 15:31</text>
<text text-anchor="start" x="8" y="-456.1" font-family="Times,serif" font-size="13.00">Migration version: 20160314141604</text>
<text text-anchor="start" x="8" y="-442.1" font-family="Times,serif" font-size="13.00">Generated by RailRoady 1.4.2</text>
<text text-anchor="start" x="8" y="-428.1" font-family="Times,serif" font-size="13.00">http://railroady.prestonlee.com</text>
</g>
<!-- User -->
<g id="node2" class="node"><title>User</title>
<path fill="none" stroke="black" d="M244,-316.5C244,-316.5 420,-316.5 420,-316.5 426,-316.5 432,-322.5 432,-328.5 432,-328.5 432,-590.5 432,-590.5 432,-596.5 426,-602.5 420,-602.5 420,-602.5 244,-602.5 244,-602.5 238,-602.5 232,-596.5 232,-590.5 232,-590.5 232,-328.5 232,-328.5 232,-322.5 238,-316.5 244,-316.5"/>
<text text-anchor="middle" x="332" y="-587.3" font-family="Times,serif" font-size="14.00">User</text>
<polyline fill="none" stroke="black" points="232,-579.5 432,-579.5 "/>
<text text-anchor="start" x="240" y="-564.3" font-family="Times,serif" font-size="14.00">id :INTEGER</text>
<text text-anchor="start" x="240" y="-549.3" font-family="Times,serif" font-size="14.00">email :varchar</text>
<text text-anchor="start" x="240" y="-534.3" font-family="Times,serif" font-size="14.00">encrypted_password :varchar</text>
<text text-anchor="start" x="240" y="-519.3" font-family="Times,serif" font-size="14.00">reset_password_token :varchar</text>
<text text-anchor="start" x="240" y="-504.3" font-family="Times,serif" font-size="14.00">reset_password_sent_at :datetime</text>
<text text-anchor="start" x="240" y="-489.3" font-family="Times,serif" font-size="14.00">remember_created_at :datetime</text>
<text text-anchor="start" x="240" y="-474.3" font-family="Times,serif" font-size="14.00">sign_in_count :integer</text>
<text text-anchor="start" x="240" y="-459.3" font-family="Times,serif" font-size="14.00">current_sign_in_at :datetime</text>
<text text-anchor="start" x="240" y="-444.3" font-family="Times,serif" font-size="14.00">last_sign_in_at :datetime</text>
<text text-anchor="start" x="240" y="-429.3" font-family="Times,serif" font-size="14.00">current_sign_in_ip :varchar</text>
<text text-anchor="start" x="240" y="-414.3" font-family="Times,serif" font-size="14.00">last_sign_in_ip :varchar</text>
<text text-anchor="start" x="240" y="-399.3" font-family="Times,serif" font-size="14.00">confirmation_token :varchar</text>
<text text-anchor="start" x="240" y="-384.3" font-family="Times,serif" font-size="14.00">confirmed_at :datetime</text>
<text text-anchor="start" x="240" y="-369.3" font-family="Times,serif" font-size="14.00">confirmation_sent_at :datetime</text>
<text text-anchor="start" x="240" y="-354.3" font-family="Times,serif" font-size="14.00">unconfirmed_email :varchar</text>
<text text-anchor="start" x="240" y="-339.3" font-family="Times,serif" font-size="14.00">created_at :datetime</text>
<text text-anchor="start" x="240" y="-324.3" font-family="Times,serif" font-size="14.00">updated_at :datetime</text>
</g>
<!-- Vehicle -->
<g id="node3" class="node"><title>Vehicle</title>
<path fill="none" stroke="black" d="M218.5,-158.5C218.5,-158.5 343.5,-158.5 343.5,-158.5 349.5,-158.5 355.5,-164.5 355.5,-170.5 355.5,-170.5 355.5,-267.5 355.5,-267.5 355.5,-273.5 349.5,-279.5 343.5,-279.5 343.5,-279.5 218.5,-279.5 218.5,-279.5 212.5,-279.5 206.5,-273.5 206.5,-267.5 206.5,-267.5 206.5,-170.5 206.5,-170.5 206.5,-164.5 212.5,-158.5 218.5,-158.5"/>
<text text-anchor="middle" x="281" y="-264.3" font-family="Times,serif" font-size="14.00">Vehicle</text>
<polyline fill="none" stroke="black" points="206.5,-256.5 355.5,-256.5 "/>
<text text-anchor="start" x="214.5" y="-241.3" font-family="Times,serif" font-size="14.00">id :INTEGER</text>
<text text-anchor="start" x="214.5" y="-226.3" font-family="Times,serif" font-size="14.00">name :text</text>
<text text-anchor="start" x="214.5" y="-211.3" font-family="Times,serif" font-size="14.00">matriculation_date :date</text>
<text text-anchor="start" x="214.5" y="-196.3" font-family="Times,serif" font-size="14.00">user_id :integer</text>
<text text-anchor="start" x="214.5" y="-181.3" font-family="Times,serif" font-size="14.00">created_at :datetime</text>
<text text-anchor="start" x="214.5" y="-166.3" font-family="Times,serif" font-size="14.00">updated_at :datetime</text>
</g>
<!-- User&#45;&gt;Vehicle -->
<g id="edge1" class="edge"><title>User&#45;&gt;Vehicle</title>
<path fill="none" stroke="#3c3c07" d="M299.88,-308.294C298.52,-301.931 297.186,-295.694 295.897,-289.663"/>
<ellipse fill="none" stroke="#3c3c07" cx="300.76" cy="-312.408" rx="4.00001" ry="4.00001"/>
<polygon fill="#3c3c07" stroke="#3c3c07" points="295.862,-289.501 298.171,-278.781 294.816,-284.611 293.771,-279.722 293.771,-279.722 293.771,-279.722 294.816,-284.611 289.37,-280.663 295.862,-289.501 295.862,-289.501"/>
</g>
<!-- Insurance -->
<g id="node4" class="node"><title>Insurance</title>
<path fill="none" stroke="black" d="M278.5,-0.5C278.5,-0.5 385.5,-0.5 385.5,-0.5 391.5,-0.5 397.5,-6.5 397.5,-12.5 397.5,-12.5 397.5,-109.5 397.5,-109.5 397.5,-115.5 391.5,-121.5 385.5,-121.5 385.5,-121.5 278.5,-121.5 278.5,-121.5 272.5,-121.5 266.5,-115.5 266.5,-109.5 266.5,-109.5 266.5,-12.5 266.5,-12.5 266.5,-6.5 272.5,-0.5 278.5,-0.5"/>
<text text-anchor="middle" x="332" y="-106.3" font-family="Times,serif" font-size="14.00">Insurance</text>
<polyline fill="none" stroke="black" points="266.5,-98.5 397.5,-98.5 "/>
<text text-anchor="start" x="274.5" y="-83.3" font-family="Times,serif" font-size="14.00">id :INTEGER</text>
<text text-anchor="start" x="274.5" y="-68.3" font-family="Times,serif" font-size="14.00">name :varchar</text>
<text text-anchor="start" x="274.5" y="-53.3" font-family="Times,serif" font-size="14.00">issue_date :date</text>
<text text-anchor="start" x="274.5" y="-38.3" font-family="Times,serif" font-size="14.00">expiry_date :date</text>
<text text-anchor="start" x="274.5" y="-23.3" font-family="Times,serif" font-size="14.00">created_at :datetime</text>
<text text-anchor="start" x="274.5" y="-8.3" font-family="Times,serif" font-size="14.00">updated_at :datetime</text>
</g>
<!-- User&#45;&gt;Insurance -->
<g id="edge2" class="edge"><title>User&#45;&gt;Insurance</title>
<path fill="none" stroke="#141d50" d="M364.683,-308.276C370.839,-260.119 373.131,-206.669 365,-158 363.434,-148.63 361.065,-138.949 358.3,-129.504"/>
<ellipse fill="none" stroke="#141d50" cx="364.148" cy="-312.302" rx="4.00001" ry="4.00001"/>
<ellipse fill="#141d50" stroke="#141d50" cx="357.063" cy="-125.462" rx="4.00001" ry="4.00001"/>
</g>
<!-- Vehicle&#45;&gt;Insurance -->
<g id="edge3" class="edge"><title>Vehicle&#45;&gt;Insurance</title>
<path fill="none" stroke="#b5b436" d="M303.065,-150.506C305.317,-143.619 307.605,-136.621 309.857,-129.732"/>
<ellipse fill="none" stroke="#b5b436" cx="301.815" cy="-154.33" rx="4.00001" ry="4.00001"/>
<ellipse fill="#b5b436" stroke="#b5b436" cx="311.237" cy="-125.509" rx="4.00001" ry="4.00001"/>
</g>
</g>
</svg>
