<?xml version="1.0" encoding="UTF-8" standalone="no"?>
<!DOCTYPE svg PUBLIC "-//W3C//DTD SVG 1.1//EN"
 "http://www.w3.org/Graphics/SVG/1.1/DTD/svg11.dtd">
<!-- Generated by graphviz version 2.38.0 (20140413.2041)
 -->
<!-- Title: models_diagram Pages: 1 -->
<svg width="440pt" height="641pt"
 viewBox="0.00 0.00 440.00 641.00" xmlns="http://www.w3.org/2000/svg" xmlns:xlink="http://www.w3.org/1999/xlink">
<g id="graph0" class="graph" transform="scale(1 1) rotate(0) translate(4 637)">
<title>models_diagram</title>
<polygon fill="none" stroke="none" points="-4,4 -4,-637 436,-637 436,4 -4,4"/>
<!-- _diagram_info -->
<g id="node1" class="node"><title>_diagram_info</title>
<text text-anchor="start" x="8" y="-514.1" font-family="Times,serif" font-size="13.00">Models diagram</text>
<text text-anchor="start" x="8" y="-500.1" font-family="Times,serif" font-size="13.00">Date: Mar 15 2016 &#45; 10:03</text>
<text text-anchor="start" x="8" y="-486.1" font-family="Times,serif" font-size="13.00">Migration version: 20160314141604</text>
<text text-anchor="start" x="8" y="-472.1" font-family="Times,serif" font-size="13.00">Generated by RailRoady 1.4.2</text>
<text text-anchor="start" x="8" y="-458.1" font-family="Times,serif" font-size="13.00">http://railroady.prestonlee.com</text>
</g>
<!-- User -->
<g id="node2" class="node"><title>User</title>
<path fill="none" stroke="black" d="M244,-346.5C244,-346.5 420,-346.5 420,-346.5 426,-346.5 432,-352.5 432,-358.5 432,-358.5 432,-620.5 432,-620.5 432,-626.5 426,-632.5 420,-632.5 420,-632.5 244,-632.5 244,-632.5 238,-632.5 232,-626.5 232,-620.5 232,-620.5 232,-358.5 232,-358.5 232,-352.5 238,-346.5 244,-346.5"/>
<text text-anchor="middle" x="332" y="-617.3" font-family="Times,serif" font-size="14.00">User</text>
<polyline fill="none" stroke="black" points="232,-609.5 432,-609.5 "/>
<text text-anchor="start" x="240" y="-594.3" font-family="Times,serif" font-size="14.00">id :INTEGER</text>
<text text-anchor="start" x="240" y="-579.3" font-family="Times,serif" font-size="14.00">email :varchar</text>
<text text-anchor="start" x="240" y="-564.3" font-family="Times,serif" font-size="14.00">encrypted_password :varchar</text>
<text text-anchor="start" x="240" y="-549.3" font-family="Times,serif" font-size="14.00">reset_password_token :varchar</text>
<text text-anchor="start" x="240" y="-534.3" font-family="Times,serif" font-size="14.00">reset_password_sent_at :datetime</text>
<text text-anchor="start" x="240" y="-519.3" font-family="Times,serif" font-size="14.00">remember_created_at :datetime</text>
<text text-anchor="start" x="240" y="-504.3" font-family="Times,serif" font-size="14.00">sign_in_count :integer</text>
<text text-anchor="start" x="240" y="-489.3" font-family="Times,serif" font-size="14.00">current_sign_in_at :datetime</text>
<text text-anchor="start" x="240" y="-474.3" font-family="Times,serif" font-size="14.00">last_sign_in_at :datetime</text>
<text text-anchor="start" x="240" y="-459.3" font-family="Times,serif" font-size="14.00">current_sign_in_ip :varchar</text>
<text text-anchor="start" x="240" y="-444.3" font-family="Times,serif" font-size="14.00">last_sign_in_ip :varchar</text>
<text text-anchor="start" x="240" y="-429.3" font-family="Times,serif" font-size="14.00">confirmation_token :varchar</text>
<text text-anchor="start" x="240" y="-414.3" font-family="Times,serif" font-size="14.00">confirmed_at :datetime</text>
<text text-anchor="start" x="240" y="-399.3" font-family="Times,serif" font-size="14.00">confirmation_sent_at :datetime</text>
<text text-anchor="start" x="240" y="-384.3" font-family="Times,serif" font-size="14.00">unconfirmed_email :varchar</text>
<text text-anchor="start" x="240" y="-369.3" font-family="Times,serif" font-size="14.00">created_at :datetime</text>
<text text-anchor="start" x="240" y="-354.3" font-family="Times,serif" font-size="14.00">updated_at :datetime</text>
</g>
<!-- Vehicle -->
<g id="node3" class="node"><title>Vehicle</title>
<path fill="none" stroke="black" d="M218.5,-188.5C218.5,-188.5 343.5,-188.5 343.5,-188.5 349.5,-188.5 355.5,-194.5 355.5,-200.5 355.5,-200.5 355.5,-297.5 355.5,-297.5 355.5,-303.5 349.5,-309.5 343.5,-309.5 343.5,-309.5 218.5,-309.5 218.5,-309.5 212.5,-309.5 206.5,-303.5 206.5,-297.5 206.5,-297.5 206.5,-200.5 206.5,-200.5 206.5,-194.5 212.5,-188.5 218.5,-188.5"/>
<text text-anchor="middle" x="281" y="-294.3" font-family="Times,serif" font-size="14.00">Vehicle</text>
<polyline fill="none" stroke="black" points="206.5,-286.5 355.5,-286.5 "/>
<text text-anchor="start" x="214.5" y="-271.3" font-family="Times,serif" font-size="14.00">id :INTEGER</text>
<text text-anchor="start" x="214.5" y="-256.3" font-family="Times,serif" font-size="14.00">name :text</text>
<text text-anchor="start" x="214.5" y="-241.3" font-family="Times,serif" font-size="14.00">matriculation_date :date</text>
<text text-anchor="start" x="214.5" y="-226.3" font-family="Times,serif" font-size="14.00">user_id :integer</text>
<text text-anchor="start" x="214.5" y="-211.3" font-family="Times,serif" font-size="14.00">created_at :datetime</text>
<text text-anchor="start" x="214.5" y="-196.3" font-family="Times,serif" font-size="14.00">updated_at :datetime</text>
</g>
<!-- User&#45;&gt;Vehicle -->
<g id="edge1" class="edge"><title>User&#45;&gt;Vehicle</title>
<path fill="none" stroke="#45f73a" d="M299.88,-338.294C298.52,-331.931 297.186,-325.694 295.897,-319.663"/>
<ellipse fill="none" stroke="#45f73a" cx="300.76" cy="-342.408" rx="4.00001" ry="4.00001"/>
<polygon fill="#45f73a" stroke="#45f73a" points="295.862,-319.501 298.171,-308.781 294.816,-314.611 293.771,-309.722 293.771,-309.722 293.771,-309.722 294.816,-314.611 289.37,-310.663 295.862,-319.501 295.862,-319.501"/>
</g>
<!-- Insurance -->
<g id="node4" class="node"><title>Insurance</title>
<path fill="none" stroke="black" d="M278.5,-0.5C278.5,-0.5 385.5,-0.5 385.5,-0.5 391.5,-0.5 397.5,-6.5 397.5,-12.5 397.5,-12.5 397.5,-139.5 397.5,-139.5 397.5,-145.5 391.5,-151.5 385.5,-151.5 385.5,-151.5 278.5,-151.5 278.5,-151.5 272.5,-151.5 266.5,-145.5 266.5,-139.5 266.5,-139.5 266.5,-12.5 266.5,-12.5 266.5,-6.5 272.5,-0.5 278.5,-0.5"/>
<text text-anchor="middle" x="332" y="-136.3" font-family="Times,serif" font-size="14.00">Insurance</text>
<polyline fill="none" stroke="black" points="266.5,-128.5 397.5,-128.5 "/>
<text text-anchor="start" x="274.5" y="-113.3" font-family="Times,serif" font-size="14.00">id :INTEGER</text>
<text text-anchor="start" x="274.5" y="-98.3" font-family="Times,serif" font-size="14.00">name :varchar</text>
<text text-anchor="start" x="274.5" y="-83.3" font-family="Times,serif" font-size="14.00">issue_date :date</text>
<text text-anchor="start" x="274.5" y="-68.3" font-family="Times,serif" font-size="14.00">expiry_date :date</text>
<text text-anchor="start" x="274.5" y="-53.3" font-family="Times,serif" font-size="14.00">vehicles_id :integer</text>
<text text-anchor="start" x="274.5" y="-38.3" font-family="Times,serif" font-size="14.00">users_id :integer</text>
<text text-anchor="start" x="274.5" y="-23.3" font-family="Times,serif" font-size="14.00">created_at :datetime</text>
<text text-anchor="start" x="274.5" y="-8.3" font-family="Times,serif" font-size="14.00">updated_at :datetime</text>
</g>
<!-- User&#45;&gt;Insurance -->
<g id="edge2" class="edge"><title>User&#45;&gt;Insurance</title>
<path fill="none" stroke="#c836d0" d="M363.712,-336.38C369.612,-288.779 372.002,-236.124 365,-188 363.738,-179.327 361.949,-170.389 359.849,-161.528"/>
<polygon fill="#c836d0" stroke="#c836d0" points="363.691,-336.541 357.939,-345.878 363.046,-341.5 362.401,-346.458 362.401,-346.458 362.401,-346.458 363.046,-341.5 366.864,-347.038 363.691,-336.541 363.691,-336.541"/>
<polygon fill="#c836d0" stroke="#c836d0" points="359.786,-161.275 361.722,-150.481 358.571,-156.425 357.357,-151.574 357.357,-151.574 357.357,-151.574 358.571,-156.425 352.992,-152.667 359.786,-161.275 359.786,-161.275"/>
</g>
<!-- Vehicle&#45;&gt;Insurance -->
<g id="edge3" class="edge"><title>Vehicle&#45;&gt;Insurance</title>
<path fill="none" stroke="#875b1b" d="M301.184,-180.325C303.213,-173.523 305.288,-166.563 307.357,-159.628"/>
<ellipse fill="none" stroke="#875b1b" cx="299.981" cy="-184.359" rx="4.00001" ry="4.00001"/>
<ellipse fill="#875b1b" stroke="#875b1b" cx="308.635" cy="-155.343" rx="4.00001" ry="4.00001"/>
</g>
</g>
</svg>
