<?xml version="1.0" encoding="UTF-8" standalone="no"?>
<!DOCTYPE svg PUBLIC "-//W3C//DTD SVG 1.1//EN"
 "http://www.w3.org/Graphics/SVG/1.1/DTD/svg11.dtd">
<!-- Generated by graphviz version 2.38.0 (20140413.2041)
 -->
<!-- Title: models_diagram Pages: 1 -->
<svg width="440pt" height="453pt"
 viewBox="0.00 0.00 440.00 453.00" xmlns="http://www.w3.org/2000/svg" xmlns:xlink="http://www.w3.org/1999/xlink">
<g id="graph0" class="graph" transform="scale(1 1) rotate(0) translate(4 449)">
<title>models_diagram</title>
<polygon fill="none" stroke="none" points="-4,4 -4,-449 436,-449 436,4 -4,4"/>
<!-- _diagram_info -->
<g id="node1" class="node"><title>_diagram_info</title>
<text text-anchor="start" x="8" y="-326.1" font-family="Times,serif" font-size="13.00">Models diagram</text>
<text text-anchor="start" x="8" y="-312.1" font-family="Times,serif" font-size="13.00">Date: Mar 09 2016 &#45; 14:38</text>
<text text-anchor="start" x="8" y="-298.1" font-family="Times,serif" font-size="13.00">Migration version: 20160202112621</text>
<text text-anchor="start" x="8" y="-284.1" font-family="Times,serif" font-size="13.00">Generated by RailRoady 1.4.2</text>
<text text-anchor="start" x="8" y="-270.1" font-family="Times,serif" font-size="13.00">http://railroady.prestonlee.com</text>
</g>
<!-- User -->
<g id="node2" class="node"><title>User</title>
<path fill="none" stroke="black" d="M244,-158.5C244,-158.5 420,-158.5 420,-158.5 426,-158.5 432,-164.5 432,-170.5 432,-170.5 432,-432.5 432,-432.5 432,-438.5 426,-444.5 420,-444.5 420,-444.5 244,-444.5 244,-444.5 238,-444.5 232,-438.5 232,-432.5 232,-432.5 232,-170.5 232,-170.5 232,-164.5 238,-158.5 244,-158.5"/>
<text text-anchor="middle" x="332" y="-429.3" font-family="Times,serif" font-size="14.00">User</text>
<polyline fill="none" stroke="black" points="232,-421.5 432,-421.5 "/>
<text text-anchor="start" x="240" y="-406.3" font-family="Times,serif" font-size="14.00">id :INTEGER</text>
<text text-anchor="start" x="240" y="-391.3" font-family="Times,serif" font-size="14.00">email :varchar</text>
<text text-anchor="start" x="240" y="-376.3" font-family="Times,serif" font-size="14.00">encrypted_password :varchar</text>
<text text-anchor="start" x="240" y="-361.3" font-family="Times,serif" font-size="14.00">reset_password_token :varchar</text>
<text text-anchor="start" x="240" y="-346.3" font-family="Times,serif" font-size="14.00">reset_password_sent_at :datetime</text>
<text text-anchor="start" x="240" y="-331.3" font-family="Times,serif" font-size="14.00">remember_created_at :datetime</text>
<text text-anchor="start" x="240" y="-316.3" font-family="Times,serif" font-size="14.00">sign_in_count :integer</text>
<text text-anchor="start" x="240" y="-301.3" font-family="Times,serif" font-size="14.00">current_sign_in_at :datetime</text>
<text text-anchor="start" x="240" y="-286.3" font-family="Times,serif" font-size="14.00">last_sign_in_at :datetime</text>
<text text-anchor="start" x="240" y="-271.3" font-family="Times,serif" font-size="14.00">current_sign_in_ip :varchar</text>
<text text-anchor="start" x="240" y="-256.3" font-family="Times,serif" font-size="14.00">last_sign_in_ip :varchar</text>
<text text-anchor="start" x="240" y="-241.3" font-family="Times,serif" font-size="14.00">confirmation_token :varchar</text>
<text text-anchor="start" x="240" y="-226.3" font-family="Times,serif" font-size="14.00">confirmed_at :datetime</text>
<text text-anchor="start" x="240" y="-211.3" font-family="Times,serif" font-size="14.00">confirmation_sent_at :datetime</text>
<text text-anchor="start" x="240" y="-196.3" font-family="Times,serif" font-size="14.00">unconfirmed_email :varchar</text>
<text text-anchor="start" x="240" y="-181.3" font-family="Times,serif" font-size="14.00">created_at :datetime</text>
<text text-anchor="start" x="240" y="-166.3" font-family="Times,serif" font-size="14.00">updated_at :datetime</text>
</g>
<!-- Vehicle -->
<g id="node3" class="node"><title>Vehicle</title>
<path fill="none" stroke="black" d="M269.5,-0.5C269.5,-0.5 394.5,-0.5 394.5,-0.5 400.5,-0.5 406.5,-6.5 406.5,-12.5 406.5,-12.5 406.5,-109.5 406.5,-109.5 406.5,-115.5 400.5,-121.5 394.5,-121.5 394.5,-121.5 269.5,-121.5 269.5,-121.5 263.5,-121.5 257.5,-115.5 257.5,-109.5 257.5,-109.5 257.5,-12.5 257.5,-12.5 257.5,-6.5 263.5,-0.5 269.5,-0.5"/>
<text text-anchor="middle" x="332" y="-106.3" font-family="Times,serif" font-size="14.00">Vehicle</text>
<polyline fill="none" stroke="black" points="257.5,-98.5 406.5,-98.5 "/>
<text text-anchor="start" x="265.5" y="-83.3" font-family="Times,serif" font-size="14.00">id :INTEGER</text>
<text text-anchor="start" x="265.5" y="-68.3" font-family="Times,serif" font-size="14.00">name :text</text>
<text text-anchor="start" x="265.5" y="-53.3" font-family="Times,serif" font-size="14.00">matriculation_date :date</text>
<text text-anchor="start" x="265.5" y="-38.3" font-family="Times,serif" font-size="14.00">user_id :integer</text>
<text text-anchor="start" x="265.5" y="-23.3" font-family="Times,serif" font-size="14.00">created_at :datetime</text>
<text text-anchor="start" x="265.5" y="-8.3" font-family="Times,serif" font-size="14.00">updated_at :datetime</text>
</g>
<!-- User&#45;&gt;Vehicle -->
<g id="edge1" class="edge"><title>User&#45;&gt;Vehicle</title>
<path fill="none" stroke="#ee5a05" d="M332,-150.294C332,-144.086 332,-137.998 332,-132.105"/>
<ellipse fill="none" stroke="#ee5a05" cx="332" cy="-154.32" rx="4" ry="4"/>
<polygon fill="#ee5a05" stroke="#ee5a05" points="332,-131.722 336.5,-121.722 332,-126.722 332,-121.722 332,-121.722 332,-121.722 332,-126.722 327.5,-121.722 332,-131.722 332,-131.722"/>
</g>
</g>
</svg>
