<?xml version="1.0" encoding="UTF-8" standalone="no"?>
<!DOCTYPE svg PUBLIC "-//W3C//DTD SVG 1.1//EN"
 "http://www.w3.org/Graphics/SVG/1.1/DTD/svg11.dtd">
<!-- Generated by graphviz version 2.38.0 (20140413.2041)
 -->
<!-- Title: models_diagram Pages: 1 -->
<svg width="312pt" height="230pt"
 viewBox="0.00 0.00 311.85 230.00" xmlns="http://www.w3.org/2000/svg" xmlns:xlink="http://www.w3.org/1999/xlink">
<g id="graph0" class="graph" transform="scale(1 1) rotate(0) translate(4 226)">
<title>models_diagram</title>
<polygon fill="none" stroke="none" points="-4,4 -4,-226 307.846,-226 307.846,4 -4,4"/>
<!-- _diagram_info -->
<g id="node1" class="node"><title>_diagram_info</title>
<text text-anchor="start" x="8" y="-207.6" font-family="Times,serif" font-size="13.00">Models diagram</text>
<text text-anchor="start" x="8" y="-193.6" font-family="Times,serif" font-size="13.00">Date: Mar 14 2016 &#45; 17:08</text>
<text text-anchor="start" x="8" y="-179.6" font-family="Times,serif" font-size="13.00">Migration version: 20160314141604</text>
<text text-anchor="start" x="8" y="-165.6" font-family="Times,serif" font-size="13.00">Generated by RailRoady 1.4.2</text>
<text text-anchor="start" x="8" y="-151.6" font-family="Times,serif" font-size="13.00">http://railroady.prestonlee.com</text>
</g>
<!-- User -->
<g id="node2" class="node"><title>User</title>
<ellipse fill="none" stroke="black" cx="259" cy="-183" rx="27.0966" ry="18"/>
<text text-anchor="middle" x="259" y="-179.3" font-family="Times,serif" font-size="14.00">User</text>
</g>
<!-- Vehicle -->
<g id="node3" class="node"><title>Vehicle</title>
<ellipse fill="none" stroke="black" cx="226" cy="-90" rx="38.1938" ry="18"/>
<text text-anchor="middle" x="226" y="-86.3" font-family="Times,serif" font-size="14.00">Vehicle</text>
</g>
<!-- User&#45;&gt;Vehicle -->
<g id="edge1" class="edge"><title>User&#45;&gt;Vehicle</title>
<path fill="none" stroke="#e28fa5" d="M250.131,-157.543C245.637,-145.152 240.176,-130.09 235.585,-117.432"/>
<ellipse fill="none" stroke="#e28fa5" cx="251.584" cy="-161.549" rx="4.00001" ry="4.00001"/>
<polygon fill="#e28fa5" stroke="#e28fa5" points="235.535,-117.294 236.357,-106.359 233.831,-112.594 232.126,-107.893 232.126,-107.893 232.126,-107.893 233.831,-112.594 227.896,-109.427 235.535,-117.294 235.535,-117.294"/>
</g>
<!-- Insurance -->
<g id="node4" class="node"><title>Insurance</title>
<ellipse fill="none" stroke="black" cx="259" cy="-18" rx="44.6926" ry="18"/>
<text text-anchor="middle" x="259" y="-14.3" font-family="Times,serif" font-size="14.00">Insurance</text>
</g>
<!-- User&#45;&gt;Insurance -->
<g id="edge2" class="edge"><title>User&#45;&gt;Insurance</title>
<path fill="none" stroke="#f2b32e" d="M266.193,-155.478C271.32,-133.195 276.702,-100.512 273,-72 271.867,-63.2774 269.728,-53.9451 267.456,-45.5801"/>
<polygon fill="#f2b32e" stroke="#f2b32e" points="266.185,-155.51 259.442,-164.157 264.999,-160.367 263.813,-165.224 263.813,-165.224 263.813,-165.224 264.999,-160.367 268.185,-166.292 266.185,-155.51 266.185,-155.51"/>
<polygon fill="#f2b32e" stroke="#f2b32e" points="267.453,-45.5697 269.001,-34.7137 266.066,-40.7661 264.678,-35.9624 264.678,-35.9624 264.678,-35.9624 266.066,-40.7661 260.355,-37.2112 267.453,-45.5697 267.453,-45.5697"/>
</g>
<!-- Vehicle&#45;&gt;Insurance -->
<g id="edge3" class="edge"><title>Vehicle&#45;&gt;Insurance</title>
<path fill="none" stroke="#b496b5" d="M237.449,-64.7144C240.753,-57.7051 244.357,-50.0612 247.655,-43.0653"/>
<ellipse fill="none" stroke="#b496b5" cx="235.694" cy="-68.4368" rx="4.00002" ry="4.00002"/>
<ellipse fill="#b496b5" stroke="#b496b5" cx="249.379" cy="-39.4071" rx="4.00002" ry="4.00002"/>
</g>
</g>
</svg>
