<?xml version="1.0" encoding="UTF-8" standalone="no"?>
<!DOCTYPE svg PUBLIC "-//W3C//DTD SVG 1.1//EN"
 "http://www.w3.org/Graphics/SVG/1.1/DTD/svg11.dtd">
<!-- Generated by graphviz version 2.38.0 (20140413.2041)
 -->
<!-- Title: models_diagram Pages: 1 -->
<svg width="440pt" height="525pt"
 viewBox="0.00 0.00 440.00 525.00" xmlns="http://www.w3.org/2000/svg" xmlns:xlink="http://www.w3.org/1999/xlink">
<g id="graph0" class="graph" transform="scale(1 1) rotate(0) translate(4 521)">
<title>models_diagram</title>
<polygon fill="none" stroke="none" points="-4,4 -4,-521 436,-521 436,4 -4,4"/>
<!-- _diagram_info -->
<g id="node1" class="node"><title>_diagram_info</title>
<text text-anchor="start" x="8" y="-398.1" font-family="Times,serif" font-size="13.00">Models diagram</text>
<text text-anchor="start" x="8" y="-384.1" font-family="Times,serif" font-size="13.00">Date: Mar 14 2016 &#45; 17:08</text>
<text text-anchor="start" x="8" y="-370.1" font-family="Times,serif" font-size="13.00">Migration version: 20160314141604</text>
<text text-anchor="start" x="8" y="-356.1" font-family="Times,serif" font-size="13.00">Generated by RailRoady 1.4.2</text>
<text text-anchor="start" x="8" y="-342.1" font-family="Times,serif" font-size="13.00">http://railroady.prestonlee.com</text>
</g>
<!-- User -->
<g id="node2" class="node"><title>User</title>
<path fill="none" stroke="black" d="M244,-230.5C244,-230.5 420,-230.5 420,-230.5 426,-230.5 432,-236.5 432,-242.5 432,-242.5 432,-504.5 432,-504.5 432,-510.5 426,-516.5 420,-516.5 420,-516.5 244,-516.5 244,-516.5 238,-516.5 232,-510.5 232,-504.5 232,-504.5 232,-242.5 232,-242.5 232,-236.5 238,-230.5 244,-230.5"/>
<text text-anchor="middle" x="332" y="-501.3" font-family="Times,serif" font-size="14.00">User</text>
<polyline fill="none" stroke="black" points="232,-493.5 432,-493.5 "/>
<text text-anchor="start" x="240" y="-478.3" font-family="Times,serif" font-size="14.00">id :INTEGER</text>
<text text-anchor="start" x="240" y="-463.3" font-family="Times,serif" font-size="14.00">email :varchar</text>
<text text-anchor="start" x="240" y="-448.3" font-family="Times,serif" font-size="14.00">encrypted_password :varchar</text>
<text text-anchor="start" x="240" y="-433.3" font-family="Times,serif" font-size="14.00">reset_password_token :varchar</text>
<text text-anchor="start" x="240" y="-418.3" font-family="Times,serif" font-size="14.00">reset_password_sent_at :datetime</text>
<text text-anchor="start" x="240" y="-403.3" font-family="Times,serif" font-size="14.00">remember_created_at :datetime</text>
<text text-anchor="start" x="240" y="-388.3" font-family="Times,serif" font-size="14.00">sign_in_count :integer</text>
<text text-anchor="start" x="240" y="-373.3" font-family="Times,serif" font-size="14.00">current_sign_in_at :datetime</text>
<text text-anchor="start" x="240" y="-358.3" font-family="Times,serif" font-size="14.00">last_sign_in_at :datetime</text>
<text text-anchor="start" x="240" y="-343.3" font-family="Times,serif" font-size="14.00">current_sign_in_ip :varchar</text>
<text text-anchor="start" x="240" y="-328.3" font-family="Times,serif" font-size="14.00">last_sign_in_ip :varchar</text>
<text text-anchor="start" x="240" y="-313.3" font-family="Times,serif" font-size="14.00">confirmation_token :varchar</text>
<text text-anchor="start" x="240" y="-298.3" font-family="Times,serif" font-size="14.00">confirmed_at :datetime</text>
<text text-anchor="start" x="240" y="-283.3" font-family="Times,serif" font-size="14.00">confirmation_sent_at :datetime</text>
<text text-anchor="start" x="240" y="-268.3" font-family="Times,serif" font-size="14.00">unconfirmed_email :varchar</text>
<text text-anchor="start" x="240" y="-253.3" font-family="Times,serif" font-size="14.00">created_at :datetime</text>
<text text-anchor="start" x="240" y="-238.3" font-family="Times,serif" font-size="14.00">updated_at :datetime</text>
</g>
<!-- Vehicle -->
<g id="node3" class="node"><title>Vehicle</title>
<path fill="none" stroke="black" d="M218.5,-72.5C218.5,-72.5 343.5,-72.5 343.5,-72.5 349.5,-72.5 355.5,-78.5 355.5,-84.5 355.5,-84.5 355.5,-181.5 355.5,-181.5 355.5,-187.5 349.5,-193.5 343.5,-193.5 343.5,-193.5 218.5,-193.5 218.5,-193.5 212.5,-193.5 206.5,-187.5 206.5,-181.5 206.5,-181.5 206.5,-84.5 206.5,-84.5 206.5,-78.5 212.5,-72.5 218.5,-72.5"/>
<text text-anchor="middle" x="281" y="-178.3" font-family="Times,serif" font-size="14.00">Vehicle</text>
<polyline fill="none" stroke="black" points="206.5,-170.5 355.5,-170.5 "/>
<text text-anchor="start" x="214.5" y="-155.3" font-family="Times,serif" font-size="14.00">id :INTEGER</text>
<text text-anchor="start" x="214.5" y="-140.3" font-family="Times,serif" font-size="14.00">name :text</text>
<text text-anchor="start" x="214.5" y="-125.3" font-family="Times,serif" font-size="14.00">matriculation_date :date</text>
<text text-anchor="start" x="214.5" y="-110.3" font-family="Times,serif" font-size="14.00">user_id :integer</text>
<text text-anchor="start" x="214.5" y="-95.3" font-family="Times,serif" font-size="14.00">created_at :datetime</text>
<text text-anchor="start" x="214.5" y="-80.3" font-family="Times,serif" font-size="14.00">updated_at :datetime</text>
</g>
<!-- User&#45;&gt;Vehicle -->
<g id="edge1" class="edge"><title>User&#45;&gt;Vehicle</title>
<path fill="none" stroke="#88d2d0" d="M299.88,-222.294C298.52,-215.931 297.186,-209.694 295.897,-203.663"/>
<ellipse fill="none" stroke="#88d2d0" cx="300.76" cy="-226.408" rx="4.00001" ry="4.00001"/>
<polygon fill="#88d2d0" stroke="#88d2d0" points="295.862,-203.501 298.171,-192.781 294.816,-198.611 293.771,-193.722 293.771,-193.722 293.771,-193.722 294.816,-198.611 289.37,-194.663 295.862,-203.501 295.862,-203.501"/>
</g>
<!-- Insurance -->
<g id="node4" class="node"><title>Insurance</title>
<ellipse fill="none" stroke="black" cx="332" cy="-18" rx="44.6926" ry="18"/>
<text text-anchor="middle" x="332" y="-14.3" font-family="Times,serif" font-size="14.00">Insurance</text>
</g>
<!-- User&#45;&gt;Insurance -->
<g id="edge2" class="edge"><title>User&#45;&gt;Insurance</title>
<path fill="none" stroke="#b69164" d="M371.295,-220.151C377.72,-172.09 378.502,-119.229 365,-72 362.17,-62.0994 356.895,-52.2482 351.381,-43.7732"/>
<polygon fill="#b69164" stroke="#b69164" points="371.255,-220.431 365.386,-229.694 370.548,-225.381 369.841,-230.331 369.841,-230.331 369.841,-230.331 370.548,-225.381 374.296,-230.967 371.255,-220.431 371.255,-220.431"/>
<polygon fill="#b69164" stroke="#b69164" points="351.339,-43.7123 349.338,-32.9306 348.489,-39.6037 345.64,-35.4951 345.64,-35.4951 345.64,-35.4951 348.489,-39.6037 341.942,-38.0597 351.339,-43.7123 351.339,-43.7123"/>
</g>
<!-- Vehicle&#45;&gt;Insurance -->
<g id="edge3" class="edge"><title>Vehicle&#45;&gt;Insurance</title>
<path fill="none" stroke="#2bd142" d="M311.36,-64.7327C314.748,-57.2242 318.018,-49.9791 320.918,-43.5548"/>
<ellipse fill="none" stroke="#2bd142" cx="309.639" cy="-68.5453" rx="4.00002" ry="4.00002"/>
<ellipse fill="#2bd142" stroke="#2bd142" cx="322.728" cy="-39.544" rx="4.00002" ry="4.00002"/>
</g>
</g>
</svg>
